<svg xmlns="http://www.w3.org/2000/svg" width="282" height="59" viewBox="0 0 282 59" fill="none">
<path d="M51.7793 18.9749C49.5248 18.0201 47.0227 17.8169 44.6437 18.3953C42.2647 18.9738 40.1352 20.3032 38.5708 22.1865C37.0064 24.0699 36.0902 26.4071 35.958 28.8518C35.8258 31.2966 36.4846 33.7189 37.8368 35.76C39.189 37.8011 41.1627 39.3523 43.4655 40.184C45.7682 41.0156 48.2777 41.0834 50.622 40.3772C52.9663 39.6711 55.0208 38.2286 56.4812 36.2635C57.9416 34.2984 58.7301 31.9151 58.7301 29.4668C58.7351 27.2275 58.0779 25.0367 56.8412 23.1698C55.6044 21.303 53.8433 19.8435 51.7793 18.9749ZM47.3417 37.0272C45.846 37.0289 44.3834 36.587 43.139 35.7574C41.8945 34.9277 40.9241 33.7476 40.3505 32.3662C39.7769 30.9849 39.6259 29.4645 39.9166 27.9973C40.2073 26.5302 40.9266 25.1822 41.9836 24.124C43.0406 23.0658 44.3877 22.3448 45.8545 22.0524C47.3213 21.7599 48.8419 21.9091 50.2239 22.4811C51.6059 23.053 52.7872 24.0221 53.6183 25.2656C54.4495 26.509 54.8931 27.9711 54.8931 29.4668C54.8915 31.4699 54.0957 33.3906 52.6802 34.8079C51.2646 36.2251 49.3448 37.0232 47.3417 37.0272Z" fill="#F1F1F1"/>
<path d="M27.6991 44.7579C25.0839 44.7613 22.5065 44.1334 20.1858 42.9277C17.8652 41.722 15.8698 39.9739 14.3692 37.8321C12.8685 35.6903 11.907 33.2179 11.5663 30.625C11.2255 28.032 11.5156 25.3952 12.4119 22.9383C13.3082 20.4815 14.7842 18.2773 16.7145 16.5129C18.6449 14.7485 20.9725 13.4761 23.4998 12.8036C26.0271 12.1312 28.6794 12.0787 31.2313 12.6506C33.7832 13.2224 36.1594 14.4017 38.1581 16.0883C38.5465 16.416 38.7887 16.8846 38.8316 17.3909C38.8745 17.8972 38.7144 18.3999 38.3867 18.7882C38.059 19.1766 37.5904 19.4188 37.0841 19.4617C36.5778 19.5045 36.0752 19.3445 35.6868 19.0168C33.9324 17.538 31.8026 16.5742 29.5337 16.2325C27.2648 15.8907 24.9456 16.1844 22.8334 17.0808C20.7213 17.9773 18.8989 19.4414 17.5684 21.3108C16.238 23.1802 15.4516 25.3817 15.2965 27.671C15.1414 29.9602 15.6237 32.2477 16.6898 34.2795C17.7559 36.3112 19.3642 38.0079 21.3361 39.181C23.308 40.3542 25.5664 40.958 27.8607 40.9254C30.1549 40.8928 32.3953 40.2251 34.3331 38.9965C34.7617 38.7326 35.2769 38.6478 35.7675 38.7602C36.2581 38.8727 36.6848 39.1734 36.9557 39.5976C37.2266 40.0218 37.32 40.5355 37.2156 41.0279C37.1113 41.5203 36.8177 41.9519 36.398 42.2298C33.7977 43.8824 30.7801 44.7594 27.6991 44.7579Z" fill="#F1F1F1"/>
<path d="M2.10111 23.4813C1.9419 23.4804 1.78338 23.4603 1.62896 23.4215C1.38504 23.3598 1.15567 23.2505 0.953965 23.1001C0.75226 22.9497 0.582167 22.761 0.453404 22.5448C0.324642 22.3287 0.239732 22.0892 0.203527 21.8402C0.167321 21.5912 0.180529 21.3375 0.242396 21.0936C1.60063 15.7611 4.49972 10.9468 8.57766 7.25194C12.6556 3.55712 17.7317 1.14551 23.172 0.31828C28.6123 -0.508956 34.1757 0.284836 39.1676 2.60053C44.1595 4.91622 48.3586 8.6512 51.2405 13.339C51.4731 13.7703 51.5316 14.2744 51.404 14.7475C51.2763 15.2206 50.9722 15.6268 50.5542 15.8825C50.1362 16.1382 49.636 16.224 49.1567 16.1222C48.6774 16.0204 48.2553 15.7388 47.9772 15.3352C45.4898 11.2879 41.8649 8.06332 37.5554 6.06423C33.246 4.06514 28.443 3.38021 23.7465 4.095C19.05 4.80978 14.6682 6.8926 11.1486 10.0832C7.62901 13.2739 5.12758 17.4309 3.95683 22.0349C3.85246 22.4481 3.6133 22.8146 3.2772 23.0766C2.9411 23.3386 2.52724 23.481 2.10111 23.4813Z" fill="#6FE830"/>
<path d="M27.3828 55.9906C14.3748 55.9906 2.87884 46.7897 0.0579009 34.1104C-0.00441744 33.8628 -0.0165788 33.6051 0.0221323 33.3527C0.0608433 33.1002 0.149645 32.8581 0.283314 32.6405C0.416983 32.4229 0.59282 32.2342 0.800483 32.0855C1.00815 31.9368 1.24344 31.8312 1.49253 31.7748C1.74161 31.7184 1.99946 31.7124 2.25091 31.7571C2.50235 31.8019 2.74232 31.8964 2.95668 32.0352C3.17105 32.1741 3.35549 32.3543 3.49916 32.5655C3.64283 32.7766 3.74282 33.0144 3.79326 33.2647C6.2317 44.2049 16.1528 52.1477 27.3798 52.1477C30.6488 52.1615 33.8861 51.5058 36.8921 50.221C39.8981 48.9362 42.6091 47.0494 44.8583 44.677C45.0292 44.4835 45.2374 44.3265 45.4705 44.2153C45.7035 44.1042 45.9566 44.0413 46.2146 44.0303C46.4726 44.0193 46.7301 44.0605 46.9717 44.1514C47.2134 44.2424 47.4342 44.3811 47.621 44.5594C47.8077 44.7377 47.9566 44.9519 48.0586 45.1891C48.1606 45.4263 48.2136 45.6816 48.2146 45.9398C48.2156 46.198 48.1644 46.4537 48.0642 46.6917C47.964 46.9296 47.8168 47.1449 47.6314 47.3246C45.0262 50.0744 41.8858 52.2618 38.4035 53.7521C34.9211 55.2425 31.1706 56.0043 27.3828 55.9906Z" fill="#6FE830"/>
<path d="M100.159 29.6788C99.2625 31.2453 97.9249 32.5133 96.3127 33.3245C94.5815 34.2509 92.434 34.713 89.87 34.7111H85.1246V45.9888H77.4746V14.585H89.87C92.3742 14.585 94.4919 15.0183 96.2231 15.8849C97.8516 16.6587 99.2064 17.9093 100.108 19.4708C100.994 21.0713 101.442 22.8772 101.408 24.7063C101.426 26.4436 100.996 28.1563 100.159 29.6788ZM92.5535 27.587C93.2707 26.8997 93.6283 25.9295 93.6263 24.6764C93.6243 23.4233 93.2637 22.4611 92.5445 21.7897C91.8273 21.1064 90.7386 20.7637 89.2783 20.7617H85.1246V28.6359H89.2873C90.7496 28.6359 91.8353 28.2932 92.5445 27.6079L92.5535 27.587Z" fill="#6FE830"/>
<path d="M103.091 26.7117C103.963 24.8754 105.335 23.3219 107.05 22.2293C108.727 21.1839 110.668 20.6406 112.644 20.6634C114.253 20.6282 115.844 20.9971 117.273 21.7362C118.528 22.3881 119.586 23.3642 120.336 24.5631V21.031H127.986V45.9981H120.336V42.463C119.558 43.654 118.487 44.6246 117.225 45.2809C115.797 46.0214 114.205 46.3904 112.596 46.3537C110.632 46.3724 108.705 45.8212 107.047 44.7669C105.332 43.6581 103.961 42.0921 103.088 40.2457C102.081 38.1309 101.582 35.8099 101.632 33.4682C101.634 30.9043 102.12 28.6521 103.091 26.7117ZM118.752 28.9948C118.252 28.4731 117.652 28.0576 116.988 27.7729C116.323 27.4883 115.609 27.3405 114.886 27.3383C114.163 27.336 113.448 27.4795 112.782 27.76C112.116 28.0405 111.513 28.4523 111.01 28.9709C109.952 30.0626 109.423 31.5617 109.423 33.4682C109.423 35.3748 109.952 36.8888 111.01 38.0104C111.506 38.538 112.105 38.9587 112.77 39.247C113.435 39.5352 114.152 39.6849 114.876 39.6868C115.601 39.6888 116.318 39.543 116.985 39.2584C117.651 38.9737 118.253 38.5562 118.752 38.0313C119.81 36.9297 120.339 35.4236 120.339 33.5131C120.339 31.6026 119.81 30.0965 118.752 28.9948Z" fill="#6FE830"/>
<path d="M142.31 21.9448C143.667 21.1464 145.217 20.7332 146.792 20.7495V28.8477H144.7C142.792 28.8477 141.36 29.2581 140.406 30.0789C139.452 30.8997 138.975 32.3381 138.975 34.394V45.9855H131.301V21.0304H138.954V25.1961C139.802 23.8645 140.952 22.7508 142.31 21.9448Z" fill="#6FE830"/>
<path d="M171.615 35.3567H154.283C154.402 36.9067 154.9 38.092 155.777 38.9128C156.661 39.7371 157.835 40.1776 159.043 40.138C160.95 40.138 162.276 39.3322 163.024 37.7205H171.167C170.747 39.3736 169.958 40.9096 168.857 42.2122C167.756 43.5149 166.374 44.5499 164.814 45.239C163.081 46.0042 161.203 46.3855 159.309 46.3566C157.034 46.3988 154.786 45.8599 152.777 44.7908C150.879 43.7633 149.322 42.2058 148.294 40.3083C147.222 38.3679 146.686 36.1008 146.684 33.507C146.682 30.9132 147.212 28.646 148.273 26.7057C149.285 24.8075 150.832 23.2487 152.723 22.2232C154.744 21.2041 156.975 20.672 159.239 20.6694C161.502 20.6668 163.735 21.1938 165.758 22.2083C167.614 23.1998 169.143 24.7066 170.163 26.5473C171.222 28.4279 171.752 30.6193 171.752 33.1215C171.749 33.8686 171.703 34.6149 171.615 35.3567ZM163.92 31.1044C163.945 30.515 163.837 29.9274 163.605 29.3853C163.372 28.8432 163.02 28.3604 162.575 27.9727C161.64 27.1833 160.445 26.769 159.222 26.8102C158.041 26.7748 156.887 27.1722 155.977 27.9279C155.097 28.6749 154.552 29.7338 154.343 31.1044H163.92Z" fill="#6FE830"/>
<path d="M195.754 23.6004C197.499 25.4989 198.372 28.1017 198.372 31.4088V45.9976H190.764V32.4397C190.764 30.7703 190.331 29.4753 189.467 28.555C188.602 27.6346 187.439 27.1724 185.977 27.1684C184.516 27.1684 183.353 27.6306 182.486 28.555C181.62 29.4793 181.187 30.7743 181.189 32.4397V45.9976H173.527V21.0305H181.177V24.3415C181.98 23.2149 183.058 22.3135 184.309 21.7237C185.701 21.062 187.227 20.7326 188.768 20.7615C191.68 20.7615 194.009 21.7078 195.754 23.6004Z" fill="#6FE830"/>
<path d="M215.364 39.5075V45.9981H211.48C208.706 45.9981 206.544 45.3188 204.992 43.9601C203.44 42.6014 202.664 40.3871 202.664 37.3171V27.3841H199.625V21.031H202.667V14.9438H210.32V21.031H215.331V27.3841H210.32V37.4068C210.32 38.1499 210.498 38.6868 210.855 39.0175C211.214 39.3462 211.811 39.5075 212.648 39.5075H215.364Z" fill="#6FE830"/>
<path d="M217.946 17.248C217.537 16.8798 217.211 16.4277 216.991 15.9224C216.771 15.4171 216.663 14.8704 216.673 14.3195C216.657 13.7591 216.763 13.2018 216.983 12.6859C217.202 12.1701 217.531 11.708 217.946 11.3312C218.845 10.5204 220.024 10.0917 221.234 10.1359C222.429 10.0955 223.593 10.5245 224.476 11.3312C224.892 11.7077 225.221 12.1697 225.441 12.6856C225.662 13.2014 225.768 13.7588 225.752 14.3195C225.762 14.8707 225.654 15.4177 225.434 15.9231C225.213 16.4285 224.887 16.8805 224.476 17.248C223.593 18.0558 222.429 18.4851 221.234 18.4434C220.024 18.4892 218.844 18.0602 217.946 17.248ZM225.041 21.0312V45.9983H217.388V21.0312H225.041Z" fill="#6FE830"/>
<path d="M250.566 23.6009C252.312 25.4995 253.184 28.1023 253.184 31.4093V45.9981H245.576V32.4402C245.576 30.7708 245.144 29.4759 244.279 28.5555C243.415 27.6351 242.251 27.1729 240.789 27.1689C239.329 27.1689 238.165 27.6311 237.298 28.5555C236.432 29.4799 236 30.7748 236.002 32.4402V45.9981H228.352V21.031H236.002V24.342C236.803 23.2143 237.881 22.3126 239.133 21.7243C240.516 21.0666 242.031 20.7373 243.562 20.762C246.478 20.762 248.813 21.7083 250.566 23.6009Z" fill="#6FE830"/>
<path d="M270.386 21.7449C271.64 22.3939 272.698 23.3669 273.449 24.5628V21.0307H281.105V45.953C281.135 48.1101 280.668 50.2451 279.74 52.1925C278.829 54.0587 277.38 55.6095 275.58 56.645C273.715 57.7467 271.395 58.2986 268.62 58.3005C264.921 58.3005 261.923 57.428 259.628 55.6828C257.333 53.9377 256.021 51.5739 255.69 48.5916H263.25C263.368 49.0628 263.579 49.5055 263.871 49.8935C264.163 50.2815 264.53 50.6071 264.951 50.8508C265.953 51.4302 267.098 51.7169 268.256 51.6785C269.835 51.6785 271.096 51.2233 272.039 50.3129C272.981 49.4024 273.45 47.9491 273.446 45.953V42.4178C272.672 43.6081 271.61 44.5844 270.359 45.2567C268.944 46.0137 267.356 46.3915 265.751 46.3534C263.773 46.3762 261.829 45.8251 260.157 44.7666C258.443 43.6569 257.072 42.0912 256.198 40.2453C255.193 38.1298 254.696 35.8092 254.746 33.4679C254.746 30.904 255.23 28.6518 256.198 26.7114C257.071 24.8756 258.443 23.3224 260.157 22.229C261.834 21.1836 263.775 20.6402 265.751 20.6631C267.362 20.6305 268.956 21.0025 270.386 21.7449ZM271.862 28.9944C271.362 28.4728 270.762 28.0572 270.098 27.7726C269.434 27.488 268.719 27.3402 267.996 27.3379C267.274 27.3357 266.558 27.4791 265.892 27.7596C265.226 28.0401 264.623 28.452 264.12 28.9705C263.062 30.0623 262.533 31.5614 262.533 33.4679C262.533 35.3744 263.062 36.8885 264.12 38.0101C264.617 38.5377 265.216 38.9584 265.881 39.2466C266.545 39.5349 267.262 39.6845 267.987 39.6865C268.711 39.6884 269.429 39.5427 270.095 39.258C270.761 38.9734 271.363 38.5559 271.862 38.031C272.92 36.9293 273.449 35.4232 273.449 33.5127C273.449 31.6022 272.92 30.0961 271.862 28.9944Z" fill="#6FE830"/>
<path d="M68.2091 25.3965H64.5664V35.2429H68.2091V25.3965Z" fill="#F1F1F1"/>
<path d="M71.3066 32.1442V28.5015H61.4602V32.1442H71.3066Z" fill="#F1F1F1"/>
</svg>